<?xml version="1.0" encoding="UTF-8" standalone="no"?>
<!-- Created with Inkscape (http://www.inkscape.org/) -->

<svg
   width="210mm"
   height="297mm"
   viewBox="0 0 210 297"
   version="1.1"
   id="svg5"
   xml:space="preserve"
   inkscape:version="1.2.1 (9c6d41e410, 2022-07-14)"
   sodipodi:docname="proposition_29022024.svg"
   inkscape:export-filename="proposition_20022024.png"
   inkscape:export-xdpi="96"
   inkscape:export-ydpi="96"
   xmlns:inkscape="http://www.inkscape.org/namespaces/inkscape"
   xmlns:sodipodi="http://sodipodi.sourceforge.net/DTD/sodipodi-0.dtd"
   xmlns="http://www.w3.org/2000/svg"
   xmlns:svg="http://www.w3.org/2000/svg"><sodipodi:namedview
     id="namedview7"
     pagecolor="#333333"
     bordercolor="#000000"
     borderopacity="0.25"
     inkscape:showpageshadow="2"
     inkscape:pageopacity="0"
     inkscape:pagecheckerboard="0"
     inkscape:deskcolor="#d1d1d1"
     inkscape:document-units="mm"
     showgrid="false"
     inkscape:zoom="0.71485971"
     inkscape:cx="279.77517"
     inkscape:cy="449.03915"
     inkscape:window-width="200"
     inkscape:window-height="200"
     inkscape:window-x="-8"
     inkscape:window-y="-8"
     inkscape:window-maximized="1"
     inkscape:current-layer="layer1" /><defs
     id="defs2" /><g
     inkscape:label="Calque 1"
     inkscape:groupmode="layer"
     id="layer1">
     <circle
       style="fill:#000000;fill-opacity:1;stroke:#39b0ff;stroke-width:3.427;stroke-dasharray:none;stroke-dashoffset:15.1184;stroke-opacity:1;paint-order:markers fill stroke"
       id="path350-1-6-4-7-8"
       cx="30.393318"
       cy="29.053867"
       r="20.897676" />
     <path
       d="m 30.71433,43.9132 c 0.18831,-0.0992 0.31178,-0.22858 0.42361,-0.44394 0.0761,-0.14642 0.08,-0.36702 0.091,-5.10503 l 0.0113,-4.95198 h -0.95675 -0.95674 l -0.0224,0.14218 c -0.0128,0.0782 -0.0179,2.29672 -0.0128,4.93013 l 0.01,4.78802 0.10009,0.20888 c 0.23175,0.48347 0.8365,0.68244 1.31235,0.43181 z m -3.90794,-2.17358 c 0.26635,-0.0813 0.54042,-0.32011 0.64943,-0.56597 0.0725,-0.16351 0.0776,-0.36368 0.0785,-3.06961 7.1e-4,-2.99084 -0.007,-3.14315 -0.17731,-3.55214 -0.21605,-0.51774 -0.73279,-0.97107 -1.32649,-1.16372 -0.1874,-0.0609 -0.36607,-0.10052 -0.39706,-0.0883 -0.0864,0.0341 -0.0828,7.44191 0.004,7.73767 0.11246,0.38395 0.39001,0.64937 0.75638,0.72346 0.10109,0.0204 0.18504,0.0392 0.18664,0.042 10e-4,0.003 0.10336,-0.0259 0.22602,-0.0633 z m 7.58138,-0.0633 c 0.17841,-0.0943 0.34469,-0.27051 0.45374,-0.48083 0.0754,-0.14546 0.08,-0.3453 0.0921,-4.03374 0.0114,-3.55697 0.007,-3.8807 -0.0563,-3.8807 -0.0379,0 -0.21286,0.0497 -0.38856,0.11018 -0.58068,0.20024 -1.02255,0.56531 -1.25383,1.03593 -0.24735,0.50335 -0.24958,0.53558 -0.25027,3.64225 -2.6e-4,1.72152 0.0158,2.90122 0.041,2.99143 0.09,0.32226 0.36272,0.5906 0.71725,0.70571 0.15347,0.0499 0.46155,0.007 0.64492,-0.0901 z M 23.44653,38.74745 c 0.0805,-0.0236 0.22066,-0.11715 0.31155,-0.20769 0.32092,-0.31964 0.30575,-0.17842 0.32015,-2.98074 0.007,-1.38052 -0.003,-2.52593 -0.0214,-2.54531 -0.0189,-0.0193 -0.2257,-0.0735 -0.45958,-0.12043 -0.23388,-0.0468 -0.63928,-0.14416 -0.90089,-0.21639 -0.26161,-0.0722 -0.48669,-0.11999 -0.50019,-0.10621 -0.0408,0.042 -0.0255,5.3103 0.0159,5.49377 0.054,0.2392 0.25914,0.51149 0.47269,0.62749 0.19758,0.10735 0.50864,0.12996 0.76171,0.0553 z m 14.27189,-0.003 c 0.20577,-0.0587 0.39671,-0.22652 0.51401,-0.45177 0.0935,-0.17967 0.094,-0.1903 0.10578,-2.91114 0.007,-1.50194 0.003,-2.75478 -0.009,-2.78408 -0.0154,-0.0411 -0.0669,-0.0385 -0.22472,0.0114 -0.1878,0.059 -0.77665,0.19557 -1.3861,0.32161 l -0.24477,0.0506 0.001,2.50021 c 10e-4,2.69949 -1.3e-4,2.67217 0.23297,2.98607 0.2084,0.28065 0.6103,0.39117 1.00895,0.27744 z m -5.35166,-6.42621 c 2.22142,-0.10294 4.30652,-0.36157 5.32106,-0.66014 0.92633,-0.2726 1.53699,-0.61744 2.049125,-1.15708 0.71,-0.74815 1.07663,-1.60461 1.20843,-2.82283 0.18713,-1.72992 -0.68046,-4.71952 -2.024335,-6.97557 -0.93432,-1.56848 -2.24288,-2.90411 -3.78976,-3.868183 -1.42706,-0.88939 -3.17888,-1.3949 -4.82908,-1.3935 -2.28053,10e-4 -4.38272,0.7792 -6.18587,2.287163 -1.9877,1.6623 -3.31505,3.85973 -4.17802,6.91667 -0.29704,1.05215 -0.37441,1.5602 -0.37627,2.47054 -0.003,1.02339 0.10848,1.54858 0.49288,2.33935 0.2426,0.49911 0.44499,0.78671 0.80293,1.14093 0.76823,0.76024 1.67529,1.10785 3.63376,1.39258 1.15059,0.16729 1.88551,0.23105 3.98015,0.34534 0.60736,0.0332 3.0574,0.0235 3.895,-0.0154 z M 20.3199,21.03002 c 0.5321,-1.10308 1.21761,-2.09406 2.06243,-2.9814 0.60616,-0.636673 1.04076,-1.019423 1.58626,-1.396923 0.18059,-0.12498 0.32312,-0.24692 0.31676,-0.27098 -0.021,-0.0795 -0.70407,-0.40447 -1.05343,-0.50129 -0.67366,-0.18672 -1.43479,-0.16229 -2.02384,0.065 -0.60117,0.23189 -1.25015,0.80928 -1.57005,1.39684 -0.48921,0.898603 -0.53844,2.072143 -0.1281,3.053603 0.15622,0.37362 0.5295,0.99241 0.59712,0.98985 0.0235,-4.9e-4 0.11914,-0.16047 0.21285,-0.35461 z m 20.227745,0.16976 c 0.22955,-0.31333 0.5139,-0.90851 0.62821,-1.31493 0.20713,-0.73644 0.1318,-1.64617 -0.19111,-2.30794 -0.4104,-0.841033 -1.03569,-1.409083 -1.859045,-1.688893 -0.28805,-0.0978 -0.40583,-0.11274 -0.90578,-0.11445 -0.6956,-0.003 -0.97984,0.0634 -1.6176,0.37493 l -0.44696,0.2183 0.10592,0.0725 c 1.63487,1.120823 2.97591,2.674533 3.858235,4.470073 0.12924,0.26288 0.2479,0.47736 0.26381,0.47662 0.0159,-4.8e-4 0.0899,-0.0846 0.16438,-0.18624 z"
       style="fill:#ffffff;fill-opacity:1;stroke-width:0.0431435"
       id="path933-5-5-5-4-8"
       sodipodi:nodetypes="cscccccccscccscssscscccsscscsccssscsccssssscccsscscccscccssssscsscssssccssscsssscscssscscsscc"
       inkscape:export-filename="path933.png"
       inkscape:export-xdpi="96"
       inkscape:export-ydpi="96" /><rect
       style="fill:#000000;fill-opacity:1;stroke:none;stroke-width:2.24132;stroke-dashoffset:15.1184;stroke-opacity:1;paint-order:markers fill stroke"
       id="rect8889-8-7"
       width="5.3564677"
       height="4.7304173"
       x="31.052391"
       y="22.193876"
       rx="2.8853517"
       ry="2.5481191" />
    </g></svg>